<svg xmlns="http://www.w3.org/2000/svg" width="687.079" height="766.537" viewBox="0 0 687.079 766.537">
  <g id="Group_89" data-name="Group 89" opacity="0.445">
    <path id="Path_3908" data-name="Path 3908" d="M259.1,200.723l184.288-106.4a62.235,62.235,0,0,1,62.232,0l184.288,106.4a62.23,62.23,0,0,1,31.114,53.893v212.8a62.228,62.228,0,0,1-31.114,53.893l-184.288,106.4a62.234,62.234,0,0,1-62.232,0L259.1,521.306a62.23,62.23,0,0,1-31.116-53.893v-212.8A62.232,62.232,0,0,1,259.1,200.723Z" transform="translate(-130.968 22.254)" opacity="0.2"/>
    <path id="Path_3906" data-name="Path 3906" d="M213.49,181.329,470.309,33.056a86.722,86.722,0,0,1,86.721,0L813.849,181.329a86.721,86.721,0,0,1,43.36,75.1V552.98a86.721,86.721,0,0,1-43.36,75.1L557.03,776.357a86.722,86.722,0,0,1-86.721,0L213.49,628.083a86.721,86.721,0,0,1-43.36-75.1V256.433A86.721,86.721,0,0,1,213.49,181.329Z" transform="translate(-170.13 -21.437)" opacity="0.2"/>
    <path id="Path_3907" data-name="Path 3907" d="M697.51,112.231,823.99,331.3a73.978,73.978,0,0,1,0,73.975L697.51,624.343a73.975,73.975,0,0,1-64.065,36.988H380.487a73.973,73.973,0,0,1-64.065-36.988L189.943,405.275a73.978,73.978,0,0,1,0-73.975L316.423,112.231a73.973,73.973,0,0,1,64.065-36.988H633.446A73.975,73.975,0,0,1,697.51,112.231Z" transform="translate(-163.427 14.982)" opacity="0.2"/>
  </g>
</svg>
