<svg xmlns="http://www.w3.org/2000/svg" width="30" height="34.633" viewBox="0 0 30 34.633">
  <g id="Group_197" data-name="Group 197" transform="translate(-25.2 -20.738)">
    <g id="Subtraction_5" data-name="Subtraction 5" transform="translate(25.2 20.738)" fill="#fff">
      <path d="M 14.99950981140137 29.49951171875 C 13.04131031036377 29.49951171875 11.14237022399902 29.11623191833496 9.355440139770508 28.36031150817871 C 7.628530025482178 27.62998199462891 6.077589988708496 26.58434104919434 4.745639801025391 25.25241088867188 C 3.414510011672974 23.92033195495605 2.369319915771484 22.3695011138916 1.639219999313354 20.64314079284668 C 0.8832799792289734 18.85614204406738 0.5 16.95737266540527 0.5 14.99951171875 C 0.5 13.04212188720703 0.8832899928092957 11.14333152770996 1.639219999313354 9.355892181396484 C 2.369319915771484 7.629511833190918 3.414510011672974 6.078691482543945 4.74576997756958 4.746501922607422 C 6.078380107879639 3.414361715316772 7.629350185394287 2.368691682815552 9.355389595031738 1.638731718063354 C 11.14239978790283 0.8827916979789734 13.04133987426758 0.49951171875 14.99950981140137 0.49951171875 C 16.95737075805664 0.49951171875 18.85614013671875 0.8827916979789734 20.64308929443359 1.63871169090271 C 22.36919021606445 2.368701696395874 23.9201602935791 3.414361715316772 25.25296020507812 4.746691703796387 C 26.58423042297363 6.077951908111572 27.62989044189453 7.628771781921387 28.36082077026367 9.355991363525391 C 29.11669921875 11.14440155029297 29.5 13.04322147369385 29.5 14.99951171875 C 29.5 16.95627212524414 29.11669921875 18.85508155822754 28.36075019836426 20.64319229125977 C 27.62989044189453 22.37025260925293 26.5842399597168 23.92107200622559 25.25289916992188 25.25241088867188 C 23.92095947265625 26.58434104919434 22.37001037597656 27.62998199462891 20.64314079284668 28.36029243469238 C 18.85617065429688 29.11623191833496 16.95738983154297 29.49951171875 14.99950981140137 29.49951171875 Z M 14.99950981140137 5.928221702575684 C 12.57588005065918 5.928221702575684 10.29763031005859 6.871721744537354 8.584440231323242 8.584931373596191 C 6.870629787445068 10.29822158813477 5.926760196685791 12.57631206512451 5.926760196685791 14.99951171875 C 5.926760196685791 17.42322158813477 6.870649814605713 19.70134162902832 8.584540367126465 21.41421127319336 C 10.29763031005859 23.1273021697998 12.57588005065918 24.07080078125 14.99950981140137 24.07080078125 C 17.42251014709473 24.07080078125 19.70042037963867 23.1273021697998 21.41361045837402 21.41410255432129 C 23.12742042541504 19.70080184936523 24.0712890625 17.42270088195801 24.0712890625 14.99951171875 C 24.0712890625 12.57683181762695 23.12743949890137 10.29876136779785 21.41361045837402 8.584931373596191 C 19.70042037963867 6.871721744537354 17.42251014709473 5.928221702575684 14.99950981140137 5.928221702575684 Z" stroke="none"/>
      <path d="M 14.99950981140137 28.99951171875 C 16.89010047912598 28.99951171875 18.72333908081055 28.6295223236084 20.44837951660156 27.89978218078613 C 22.11565017700195 27.19468116760254 23.6131706237793 26.18502235412598 24.89933967590332 24.89885139465332 C 26.18494987487793 23.61325263977051 27.19462966918945 22.11582183837891 27.90022087097168 20.44850158691406 C 28.62998008728027 18.72233200073242 29 16.8890209197998 29 14.99951171875 C 29 13.1104621887207 28.62997055053711 11.27712154388428 27.90036010742188 9.550851821899414 C 27.19462966918945 7.883191585540771 26.18494987487793 6.385771751403809 24.89946937561035 5.100301742553711 C 23.61241912841797 3.813711643218994 22.11486053466797 2.804011821746826 20.44828987121582 2.099211692810059 C 18.72332000732422 1.369501709938049 16.89007949829102 0.99951171875 14.99950981140137 0.99951171875 C 13.10861968994141 0.99951171875 11.27521991729736 1.369501709938049 9.550149917602539 2.099241733551025 C 7.883679866790771 2.804011821746826 6.386119842529297 3.813711643218994 5.09945011138916 5.099931716918945 C 3.813889980316162 6.386391639709473 2.804640054702759 7.883821487426758 2.099730014801025 9.550642013549805 C 1.370000004768372 11.27613162994385 1 13.10940170288086 1 14.99951171875 C 1 16.89008140563965 1.369989991188049 18.72332191467285 2.099730014801025 20.4483814239502 C 2.804640054702759 22.11519241333008 3.813889980316162 23.61263084411621 5.099190235137939 24.89885139465332 C 6.385379791259766 26.18502235412598 7.882890224456787 27.19468116760254 9.550239562988281 27.89982223510742 C 11.27519989013672 28.6295223236084 13.10859966278076 28.99951171875 14.99950981140137 28.99951171875 M 14.99950981140137 5.428221702575684 C 17.55607032775879 5.428221702575684 19.95953941345215 6.423731803894043 21.76716995239258 8.231371879577637 C 23.57542991638184 10.03964138031006 24.5712890625 12.44328212738037 24.5712890625 14.99951171875 C 24.5712890625 17.5562915802002 23.57539939880371 19.9599609375 21.76716995239258 21.76766204833984 C 19.95952987670898 23.57529258728027 17.55607032775879 24.57080078125 14.99950981140137 24.57080078125 C 12.4423303604126 24.57080078125 10.03851985931396 23.57529258728027 8.231100082397461 21.76787185668945 C 6.422689914703369 19.96055221557617 5.426760196685791 17.55683135986328 5.426760196685791 14.99951171875 C 5.426760196685791 12.4427318572998 6.42264986038208 10.03905200958252 8.230879783630371 8.231381416320801 C 10.0385103225708 6.423731803894043 12.44231986999512 5.428221702575684 14.99950981140137 5.428221702575684 M 14.99950981140137 29.99951171875 C 12.97412014007568 29.99951171875 11.00977039337158 29.60303115844727 9.160639762878418 28.82080078125 C 7.374509811401367 28.06543159484863 5.770510196685791 26.98437118530273 4.39208984375 25.60596084594727 C 3.015140056610107 24.22803115844727 1.934080004692078 22.62402153015137 1.178709983825684 20.83789253234863 C 0.3964900076389313 18.98877143859863 -1.77635683940025e-15 17.02441215515137 -1.77635683940025e-15 14.99951171875 C -1.77635683940025e-15 12.97510147094727 0.3964900076389313 11.0107421875 1.178709983825684 9.161131858825684 C 1.934080004692078 7.375001907348633 3.015140056610107 5.770991802215576 4.39208984375 4.39307165145874 C 5.770510196685791 3.015141725540161 7.374509811401367 1.933591723442078 9.160639762878418 1.178221702575684 C 11.00977039337158 0.3960017263889313 12.97412014007568 -0.00048828125 14.99950981140137 -0.00048828125 C 17.02441024780273 -0.00048828125 18.98876953125 0.3960017263889313 20.837890625 1.178221702575684 C 22.62401962280273 1.933591723442078 24.22802925109863 3.015141725540161 25.60644912719727 4.39307165145874 C 26.9843807220459 5.770991802215576 28.0654296875 7.375001907348633 28.8212890625 9.161131858825684 C 29.60302925109863 11.0107421875 30 12.97510147094727 30 14.99951171875 C 30 17.02441215515137 29.60302925109863 18.98877143859863 28.8212890625 20.83789253234863 C 28.0654296875 22.62402153015137 26.9843807220459 24.22803115844727 25.60644912719727 25.60596084594727 C 24.22802925109863 26.98437118530273 22.62401962280273 28.06543159484863 20.837890625 28.82080078125 C 18.98876953125 29.60303115844727 17.02441024780273 29.99951171875 14.99950981140137 29.99951171875 Z M 14.99950981140137 6.428221702575684 C 12.70897960662842 6.428221702575684 10.55663967132568 7.319821834564209 8.937990188598633 8.938481330871582 C 7.318850040435791 10.55713176727295 6.426760196685791 12.70996189117432 6.426760196685791 14.99951171875 C 6.426760196685791 17.29004096984863 7.318850040435791 19.44238090515137 8.937990188598633 21.0605525970459 C 10.55663967132568 22.67920112609863 12.70897960662842 23.57080078125 14.99950981140137 23.57080078125 C 17.28906059265137 23.57080078125 19.44141006469727 22.67920112609863 21.06006050109863 21.0605525970459 C 22.67919921875 19.44189262390137 23.5712890625 17.28955078125 23.5712890625 14.99951171875 C 23.5712890625 12.71045207977295 22.67919921875 10.55762195587158 21.06006050109863 8.938481330871582 C 19.44141006469727 7.319821834564209 17.28906059265137 6.428221702575684 14.99950981140137 6.428221702575684 Z" stroke="none" fill="#707070"/>
    </g>
    <path id="Path_4015" data-name="Path 4015" d="M-12634.741-11749.284h6.665l4.851-8.507,4.911,8.507h6.209l-11.12-19.806Z" transform="translate(12663.681 11804.155)" fill="#fff" stroke="#707070" stroke-width="1"/>
  </g>
</svg>
