<?xml version="1.0" encoding="utf-8"?>
<!-- Generator: Adobe Illustrator 22.0.0, SVG Export Plug-In . SVG Version: 6.00 Build 0)  -->
<svg version="1.1" id="Layer_1" xmlns="http://www.w3.org/2000/svg" xmlns:xlink="http://www.w3.org/1999/xlink" x="0px" y="0px"
	 viewBox="0 0 1080 1080" style="enable-background:new 0 0 1080 1080;" xml:space="preserve">
<style type="text/css">
	.st0{display:none;}
	.st1{display:inline;fill:#172B44;}
	.st2{display:none;fill:#172B44;}
	.st3{fill:#FAAF40;}
	.st4{fill:#172B44;}
	.st5{fill:none;}
	.st6{fill:#FFFFFF;}
</style>
<g>
	<rect y="0" class="st5" width="1080" height="1080"/>
	<g>
		<g>
			<path class="st3" d="M538.9,104.8c0,0-47,90.1-138.1,126.9c0,0-184.8,66.7-214.8,281.8c0,0,277.8-1.8,458,265.7
				c0,0,30,39.7,11.1,98.8c-18.9,59.1-74.6,83.8-110,84.8c-35.4,1-74.6-12.1-102.2-46c-27.6-33.9-35.4-87.2-13.6-131.3
				c0,0,15.5-32.5,45.1-48.9c0,0-10.2-15-66.4-48.9c0,0-61,48-69.3,128.4c-8.2,80.4,24.3,138.1,66.9,176.4
				c43.1,38.8,104.6,51.8,140,49.9c35.4-1.9,94.5-13.6,141.5-64.9c47-51.4,53.8-101.3,53.3-145.3s-28-115-90-161.3
				c-49.1-36.7-161.3-144-180.2-208c0,0-25.8-54.9,7.8-102.1c0,0,22.6-33.4,72-27.1c49.4,6.3,90.5,67.4,166,219.2
				c0,0,113.4-39,175.4-39c0,0-16.8-199.6-215.8-282.9C675.7,230.7,584,193,538.9,104.8z"/>
			<path class="st4" d="M677.8,648.8L677.8,648.8c-0.1,0-0.1-0.1-0.2-0.1c-0.1,0-0.1-0.1-0.2-0.2c-9.8-8-19.1-15.8-28-23.4
				c-149.8-125.6-153.2-200-153.2-200s-4.1-34.3,15.3-48.7c8.4-6.2,17.3-8.4,24.9-8.8c10.8-0.5,21.5,2.9,30.6,8.7
				c31.7,20.3,72.7,92.4,130.5,219.9l0.6,1.7c67.5-29.9,152.8-50.4,231.2-50.9c-3.8-116.5-58.6-220.2-142.9-289.3
				C758.9,235,728,216,694.7,201.5c-40.2-17.8-75.3-45.1-102.2-79.2c-26.9-34.1-45.8-74.9-53.6-119.5
				C523.4,91.8,464.1,165.6,384,201.2l-0.4,0.2l-0.1,0c-3.1,1.3-6.1,2.7-9.1,4.1c-2.1,1-4.2,2-6.3,3c-1.8,0.9-3.6,1.7-5.4,2.7
				c-21.2,10.7-41.4,23.4-60.2,37.8c-1.6,1.2-3.1,2.4-4.7,3.6c-1.7,1.4-3.5,2.8-5.2,4.1c-85,69.1-140.3,173.2-144.1,290.3
				c105.2,0,203.6,29.4,287.4,80.3c38.2,23.3,73.4,51,104.8,82.4c11.5,12.2,23.1,25,34.8,38.5c10.7,12.3,20.9,24.4,30.6,36.4
				c4.6,5.6,11.9,17.2,16,28.8c3,8.4,4.3,17.6,4.3,27c0,48.3-39.1,87.4-87.4,87.4c-48.3,0-87.4-39.1-87.4-87.4
				c0-48.3,39.1-87.4,87.4-87.4c-16.1-19.7-38.6-43.4-68.7-66.3c-23.9-18.1-46.7-31.2-66.3-40.7c-20.6,15-69.6,54.9-91.1,124.4
				c-6.8,22.1-10.5,45.6-10.5,70c0,130.7,106,236.7,236.7,236.7c130.7,0,236.7-105.9,236.7-236.7
				C775.7,761.6,737.1,691.8,677.8,648.8z M687.2,977.3c-47,51.4-106.1,63-141.5,64.9c-35.4,1.9-96.9-11.1-140-49.9
				c-42.6-38.3-75.1-95.9-66.9-176.4c8.2-80.4,69.3-128.4,69.3-128.4c56.2,33.9,66.4,48.9,66.4,48.9c-29.6,16.5-45.1,48.9-45.1,48.9
				c-21.8,44.1-14.1,97.4,13.6,131.3c27.6,33.9,66.9,47,102.2,46c35.4-1,91.1-25.7,110-84.8c18.9-59.1-11.1-98.8-11.1-98.8
				c-180.2-267.4-458-265.7-458-265.7c30-215.1,214.8-281.8,214.8-281.8c91.1-36.8,138.1-126.9,138.1-126.9
				c45.1,88.2,136.8,126,136.8,126c199,83.3,215.8,282.9,215.8,282.9c-62,0-175.4,39-175.4,39c-75.6-151.8-116.6-212.9-166-219.2
				c-49.4-6.3-72,27.1-72,27.1c-33.6,47.2-7.8,102.1-7.8,102.1c18.7,64.6,131.6,170.7,180.2,208c64.3,49.4,89.5,117.2,90,161.3
				S734.2,926,687.2,977.3z"/>
			<path class="st4" d="M709.7,632.2c60.7,49.1,99.5,124.1,99.5,208.3c0,1.4-0.1,2.7-0.1,4.1c70.7-66.6,116.6-159.2,122.4-262.6
				C852.1,582.1,776.9,600.2,709.7,632.2z M765.5,641.6c38.1-14.9,90.4-25.2,130.5-25.8c-9.7,61.4-28.4,108.5-64.6,155.7
				C831.4,770.6,815.2,679.1,765.5,641.6z"/>
			<path class="st3" d="M765.5,641.6c38.1-14.9,90.4-25.2,130.5-25.8c-9.7,61.4-28.4,108.5-64.6,155.7
				C831.4,770.6,815.2,679.1,765.5,641.6z"/>
			<path class="st4" d="M148.9,581.9c5.7,103.4,51.6,196,122.4,262.6c0-1.4-0.1-2.7-0.1-4.1c0-84.1,38.8-159.2,99.5-208.3
				C303.5,600.2,228.3,582.1,148.9,581.9z M249,771.4c-36.2-47.2-54.9-94.3-64.6-155.7c40.1,0.6,92.4,11,130.5,25.8
				C265.1,679.1,249,770.6,249,771.4z"/>
			<path class="st3" d="M314.9,641.6c-38.1-14.9-90.4-25.2-130.5-25.8c9.7,61.4,28.4,108.5,64.6,155.7
				C249,770.6,265.1,679.1,314.9,641.6z"/>
		</g>
	</g>
</g>
</svg>
